<?xml version="1.0" standalone="no"?>
<!DOCTYPE svg PUBLIC "-//W3C//DTD SVG 20010904//EN"
 "http://www.w3.org/TR/2001/REC-SVG-20010904/DTD/svg10.dtd">
<svg version="1.0" xmlns="http://www.w3.org/2000/svg"
 width="2250.000000pt" height="2250.000000pt" viewBox="0 0 2250.000000 2250.000000"
 preserveAspectRatio="xMidYMid meet">
<metadata>
Created by potrace 1.14, written by Peter Selinger 2001-2017
</metadata>
<g transform="translate(0.000000,2250.000000) scale(0.100000,-0.100000)"
fill="#000000" stroke="none">
<path d="M8245 20625 l-620 -623 -883 1 -883 0 -1681 -1681 -1681 -1682 0
-882 0 -883 -624 -624 -623 -624 0 -2377 0 -2378 623 -623 624 -624 0 -883 1
-884 1683 -1681 1684 -1682 881 1 881 0 623 -623 623 -623 2378 0 2377 0 624
623 623 623 882 0 882 -1 1683 1682 1682 1682 0 884 1 884 623 622 622 623 0
2378 0 2378 -623 623 -623 624 0 883 -1 882 -1681 1682 -1682 1682 -882 -1
-882 0 -624 623 -624 624 -2382 -1 -2381 -1 -620 -623z m5748 -133 c262 -263
477 -481 477 -484 0 -3 -1449 -5 -3220 -5 -1771 0 -3220 3 -3220 5 0 3 215
221 478 483 l477 478 2265 1 2265 0 478 -478z m-6659 -771 c8 -1 -4547 -4561
-4555 -4561 -2 0 -3 307 -2 682 l1 683 1596 1595 c878 877 1605 1597 1617
1600 15 4 1299 4 1343 1z m9908 -2479 l2481 -2482 1 -3507 1 -3508 -2485
-2485 -2485 -2485 -3490 1 c-1920 0 -3502 4 -3515 7 -15 4 -1027 1009 -2499
2482 l-2474 2474 0 3511 0 3510 2479 2480 c1363 1363 2488 2480 2499 2482 11
2 1592 3 3513 2 l3493 -1 2481 -2481z m881 880 l1600 -1600 0 -676 c0 -372 -2
-678 -4 -680 -2 -2 -1029 1021 -2282 2275 l-2278 2278 38 3 c21 2 328 2 682 2
l643 -1 1601 -1601z m-15626 -6872 c0 -1771 -2 -3220 -4 -3220 -2 0 -220 215
-484 479 l-479 478 0 2263 0 2263 478 478 c262 263 480 479 483 479 4 0 6
-1449 6 -3220z m17994 2743 l479 -478 0 -2265 0 -2265 -478 -477 c-263 -263
-481 -478 -483 -478 -3 0 -5 1449 -5 3220 0 1771 2 3220 4 3220 3 0 220 -215
483 -477z m-13157 -11212 c-2 -2 -308 -4 -680 -4 l-676 0 -1600 1600 -1601
1601 1 669 c0 367 1 674 1 682 1 8 1027 -1011 2280 -2265 1254 -1253 2277
-2281 2275 -2283z m12390 3863 l-1 -666 -1604 -1602 -1604 -1602 -670 2 c-368
1 -674 3 -678 3 -5 1 1016 1026 2270 2280 1379 1379 2280 2273 2283 2265 3 -7
5 -313 4 -680z m-5254 -4152 c0 -3 -215 -220 -477 -483 l-478 -479 -2264 0
-2264 0 -478 478 c-263 262 -479 480 -479 483 0 3 1449 5 3220 5 1771 0 3220
-2 3220 -4z"/>
<path d="M14249 16870 l-24 -5 -1 -3855 c0 -3370 -3 -4023 -18 -4107 -2 -10
-7 -40 -10 -68 -38 -269 -114 -519 -231 -757 -329 -665 -900 -1131 -1685
-1376 -74 -23 -285 -77 -345 -88 -22 -4 -47 -9 -55 -11 -18 -4 -41 -8 -100
-17 -25 -4 -52 -9 -60 -11 -8 -2 -44 -7 -80 -10 -36 -4 -76 -9 -90 -10 -202
-26 -971 -26 -1345 1 -38 2 -101 6 -140 9 -71 5 -161 13 -225 20 -19 2 -62 7
-95 10 -103 9 -329 38 -395 50 -14 2 -50 7 -80 11 -30 3 -58 7 -61 9 -3 2 -25
6 -50 9 -24 3 -55 8 -69 11 -24 5 -58 11 -110 20 -54 10 -275 56 -309 65 -20
5 -54 12 -76 16 -22 3 -43 8 -48 11 -4 2 -53 15 -109 29 -230 56 -584 169
-958 306 -91 33 -177 64 -191 68 l-26 8 1 -518 0 -518 40 -12 c21 -6 46 -13
55 -15 9 -2 43 -11 76 -20 126 -34 617 -160 662 -170 10 -2 88 -20 173 -39 85
-20 166 -38 180 -41 14 -3 36 -7 50 -10 14 -3 41 -8 60 -11 19 -3 51 -9 70
-14 40 -10 61 -14 185 -36 137 -23 138 -24 165 -29 50 -9 447 -65 500 -70 30
-3 71 -7 90 -10 34 -4 85 -9 188 -20 48 -5 132 -12 232 -20 69 -5 226 -14 350
-20 113 -6 798 -6 855 -1 22 2 96 7 165 11 69 4 132 8 140 10 8 2 49 6 90 10
41 3 86 8 100 10 14 2 50 7 80 10 30 3 62 8 70 10 8 2 35 7 60 10 187 25 455
82 665 140 72 20 135 38 140 39 6 2 17 6 25 9 8 3 47 15 85 27 183 58 600 239
715 310 8 5 56 34 106 63 123 74 360 238 384 267 3 3 14 13 26 21 25 17 107
90 189 169 360 346 634 781 805 1275 64 187 130 467 155 665 3 25 8 56 10 70
2 14 7 63 10 110 4 46 9 98 12 115 7 40 11 7885 4 7886 -23 4 -962 3 -982 -1z"/>
</g>
</svg>
