<svg xmlns="http://www.w3.org/2000/svg" version="1.1" xmlns:xlink="http://www.w3.org/1999/xlink" xmlns:svgjs="http://svgjs.dev/svgjs" width="2000" height="2250" viewBox="0 0 2000 2250"><g transform="matrix(1,0,0,1,0,0)"><svg viewBox="0 0 320 360" data-background-color="#ffffff" preserveAspectRatio="xMidYMid meet" height="2250" width="2000" xmlns="http://www.w3.org/2000/svg" xmlns:xlink="http://www.w3.org/1999/xlink"><g id="tight-bounds" transform="matrix(1,0,0,1,0,0)"><svg viewBox="0 0 320 360" height="360" width="320"><g><svg></svg></g><g><svg viewBox="0 0 320 360" height="360" width="320"><g><path d="M320 141.95l-19.957-19.957v-28.224l-53.812-53.812h-28.223l-19.958-19.957h-76.1l-19.957 19.957h-28.224l-53.812 53.812v28.224l-19.957 19.957v76.104l19.957 19.958v28.223l53.816 53.808h28.224l19.957 19.957h76.104l19.958-19.957h28.223l53.812-53.812v-28.224l19.949-19.957zM244.374 44.437l51.189 51.189v21.887l-73.076-73.076zM295.563 123.849v112.306l-79.408 79.408h-112.306l-79.412-79.412v-112.302l79.412-79.412h112.306zM123.807 24.48h72.39l15.478 15.477h-103.346zM24.437 95.626l51.189-51.189h21.887l-73.076 73.076zM4.484 216.197v-72.394l15.477-15.478v103.342zM75.626 315.563l-51.189-51.189v-21.887l73.076 73.076zM196.197 335.52h-72.39l-15.478-15.477h103.342zM295.563 264.374l-51.189 51.189h-21.887l73.076-73.076zM315.52 216.197l-15.477 15.478v-103.346l15.477 15.478z" fill="#ffffff" fill-rule="nonzero" stroke="none" stroke-width="1" stroke-linecap="butt" stroke-linejoin="miter" stroke-miterlimit="10" stroke-dasharray="" stroke-dashoffset="0" font-family="none" font-weight="none" font-size="none" text-anchor="none" style="mix-blend-mode: normal" data-fill-palette-color="tertiary"></path></g><g transform="matrix(1,0,0,1,96.22302158273382,90)"><svg viewBox="0 0 127.55395683453237 180" height="180" width="127.55395683453237"><g><svg viewBox="0 0 127.55395683453237 180" height="180" width="127.55395683453237"><g><svg viewBox="0 0 127.55395683453237 180" height="180" width="127.55395683453237"><g><svg viewBox="0 0 127.55395683453237 180" height="180" width="127.55395683453237"><g id="textblocktransform"><svg viewBox="0 0 127.55395683453237 180" height="180" width="127.55395683453237" id="textblock"><g><svg viewBox="0 0 127.55395683453237 180" height="180" width="127.55395683453237"><g transform="matrix(1,0,0,1,0,0)"><svg width="127.55395683453237" viewBox="0 -33.54 24.05 33.93" height="180" data-palette-color="#ff4136"><path d="M24.05-33.54L24.05-10.74Q24.05-7.96 23.07-5.87 22.09-3.78 20.34-2.39 18.58-1 16.14-0.31 13.7 0.39 10.74 0.39L10.74 0.39Q8.91 0.39 7.37 0.23 5.83 0.07 4.53-0.17 3.22-0.42 2.11-0.7 1-0.98 0-1.25L0-1.25 0-4.39Q1.03-4 2.12-3.64 3.22-3.27 4.59-2.98 5.96-2.69 7.65-2.51 9.35-2.34 11.55-2.34L11.55-2.34Q13.53-2.34 15.25-2.89 16.97-3.44 18.25-4.5 19.53-5.57 20.26-7.09 21-8.62 21-10.6L21-10.6 21-33.54 24.05-33.54Z" opacity="1" transform="matrix(1,0,0,1,0,0)" fill="#ffffff" class="wordmark-text-0" data-fill-palette-color="primary" id="text-0"></path></svg></g></svg></g></svg></g></svg></g></svg></g></svg></g></svg></g></svg></g><defs></defs></svg><rect width="320" height="360" fill="none" stroke="none" visibility="hidden"></rect></g></svg></g></svg>